<?xml version="1.0" encoding="UTF-8"?>
<svg version="1.1" viewBox="0 0 1024 1024" width="1024" height="1024" xmlns="http://www.w3.org/2000/svg">
<defs>
</defs>
<path transform="translate(382,208)" d="m0 0h16l14 2 17 5 21 10 14 10 10 8 17 17 9 11 11 15 3 3 2-5 8-12 13-16 17-17 15-11 14-8 14-6 15-4 14-2h16l19 3 15 5 19 10 14 11 13 13 10 15 7 15 5 17 2 14v24l-3 20-7 24-10 23-12 23-12 19-11 15-10 13-9 11-22 24-17 17-8 7-13 11-17 13-17 11-16 9-15 6-13 4-13 2h-17l-16-3-18-6-17-8-22-14-12-9-11-9-14-12-6-5v-2l-4-2-15-15-7-8-12-13-11-14-10-13-12-18-9-15-11-21-11-28-5-19-3-22v-17l3-20 6-18 6-12 9-13 12-13 17-13 16-8 14-5 12-3zm6 81-10 4-8 9-3 9v17l4 15 6 15 10 19 10 15 9 12 13 16 9 10 7 8 10 11h2l2 4 16 15 13 11 17 12 15 8h6l13-7 14-10 14-12 8-7 7-7 8-7 14-15 10-11 9-11 14-18 11-17 12-23 6-18 2-11v-10l-2-9-5-8-7-6-8-3h-14l-10 3-13 7-10 8v2l-4 2-14 15-15 20-2 4 1 6 9 16 9 19 7 21 3 17h-142l5-22 8-21 11-23 6-10-1-4-10-14-10-11-7-8-8-8-10-8-14-8-10-3z" fill="#F41172"/>
<path transform="translate(658,313)" d="m0 0h1l1 13 7 3 5 6 2 6 4 2 8 9v2h2l9 11 18 18 7 6 5 2v2h2l-1 5-10 20-12 20-14 20-11 14-9 11-22 24-17 17-8 7-13 11-17 13-17 11-16 9-15 6-13 4-13 2h-17l-16-3-18-6-17-8-22-14-12-9-11-9-14-12-6-5v-2l-4-2-15-15-6-9-11-12v-2l6 1h3l6-1 4-5 5-3 3-5 3-1v-2h2l2-8 4-6 3-8 2-6 2-4v-4l3-1 3-9 1-6-2-1 2-3 5 2 11 13 7 8 18 20 5 3 15 14 13 11 17 12 15 8h6l13-7 14-10 14-12 8-7 7-7 8-7 12-13 11-12 9-11 14-18 11-17 12-23 6-18 2-11z" fill="#F41172"/>
<path transform="translate(382,208)" d="m0 0h16l14 2 17 5 13 6-3 1-11-5-7-1 4 13 1-5 4 3 1 5v29l-1 3 1 8 3 15 1 9-1 2-5-2-5 1 6 5 3 1 7 8 11 11 8 10-1 2-9-10-7-8-7-7-10-8-14-8-10-3h-13l-10 4-7 8-3 9v17l4 15 6 15 10 19 10 15 9 12 13 16 9 10 7 8 9 10 2 1v2l-4-2-12-13-11-12-9-11-5-5h-2v3l1 4-5 11-3 2 1 4-4 7-2 9-4 5-4 10h-2v2l-4 3-3 5-5 3-3 4-6 1h-3l-6-2 9 11 5 5-1 2-8-8-9-11-10-12-14-19-12-19-12-22-10-23-7-21-4-21-1-10v-17l3-20 6-18 6-12 9-13 12-13 17-13 16-8 14-5 12-3z" fill="#FD3269"/>
<path transform="translate(626,208)" d="m0 0h16l19 3 15 5 19 10 14 11 13 13 10 15 7 15 5 17 2 14v24l-3 20-7 24-6 14h-3v-2l-6-2-15-14-6-6v-2l-4-2-8-9v-2h-2l-9-11-4-4-5-8-7-4h-2l-1-12h-1l-2-9-4-9-6-5-6-3-1-6-5-6-5-5-7-10-6-7-7-12-8-16-3-4h-9l-2-3 11-5 3-2 17-4z" fill="#FE667E"/>
<path transform="translate(658,313)" d="m0 0h1l1 13 7 3 5 6 2 6 4 2 8 9v2h2l9 11 18 18 7 6 5 2v2h2l-1 5-10 20-12 20-14 20-11 14-9 11-22 24-13 13v-3l17-17 2-4h-6-3l-5-1-6-2h-10l-9-3-16-4-10-2-9-1-4-1-5-1-2-2-3 1h-11v-2h2l2-4 3-3-3-2-2 3-1 4h-2v-2l-6 4-4 2 5-6 11-9 10-10 8-7 12-13 11-12 9-11 14-18 11-17 12-23 6-18 2-11z" fill="#F41172"/>
<path transform="translate(561,468)" d="m0 0 1 2 3 1-6 7-1 1h10l4-1 1 3h8l5 1 11 2 4 1 21 5 4 2h10l8 3 6-1v2h6l-2 5-17 17-3 5-10 9-11 9-15 12-15 10-21 12-15 6-13 4-13 2h-17l-16-3-18-6-4-2v-2h2l2-7 4-5v-5h3l1-5h-2l-1-4 4-3h2l5-12 5-4 1-4 4-6v-2l3-3h2l3-10 9-2 15-8 11-8 4-2 5-5 6-5h2l1 1 2-1-1-3z" fill="#EB0282"/>
<path transform="translate(511,290)" d="m0 0 4 2 16 24 7 10 10 16 2 1 3-4-1-3 3-1 5-5 6 1-6 8-5 7-2 5 3 8 6 10 9 19 6 15 5 19v6h-124l-4-2 5-5 2-3-3-1-1-5 1-7 1-3-6 1-3 2-1 2-1-4 8-19h9v1h-6l1 5-1 5 3 1 2-9h2v-2l8-6 4-10h2l2-4h2v-2l7-4 6-12 3-7 4-9 1-10 3-3 1-11v-10z" fill="#EB0282"/>
<path transform="translate(594,215)" d="m0 0 4 1-11 5 5 1h5l4 5 8 16 10 16 7 8 5 7v2l3 1 5 6 1 4-1 2 6 2 8 7-1 2-8-7-8-3h-14l-10 3-13 7-8 7h-2v2l-8 7-9 10-15 20-3 7-2-3 7-11 6-7-5-1-1 2h-3l-1 3h-3v2l2 1-5 5-8-11-10-16-11-16-8-11 2-1 2-5 8-12 13-16 17-17 15-11 14-8z" fill="#FD3269"/>
<path transform="translate(544,612)" d="m0 0h21l1 62 11-12 10-5 14-3 17 2 14 7 10 9 7 11 5 13 1 7v15l-3 14-7 13-9 10-10 7-11 4-5 1h-14l-13-4-10-6-7-8-1 16h-21zm50 62-11 4-9 7-5 7-4 13v12l3 10 6 9 7 6 10 4 9 1 11-2 10-6 6-7 4-8 2-8v-10l-3-12-7-10-7-6-7-3-5-1z" fill="#020001"/>
<path transform="translate(658,313)" d="m0 0h1l1 13 7 3 5 6 2 6 4 2 8 9v2h2l9 11 18 18 7 6 5 2v2h2l-1 5-10 20-12 20-14 20-3 2 2-5 7-10-4-2h-8l-15-5-8-4v-2l-5-1-5-4-10-4-7-6-9-2-8-6-4 1-2 4-12 14-1 2-2-1 9-11 13-16 12-17 9-15 10-21 5-17z" fill="#FD3269"/>
<path transform="translate(273,618)" d="m0 0h24l5 12 20 52 19 50 2 6 26-69 19-50 1-1h23l-1 5-16 42-15 38-20 51-4 10-1 1h-24l-4-9-17-42-17-43-20-50z" fill="#020001"/>
<path transform="translate(503,656)" d="m0 0 23 1-3 10-17 41-22 54-9 21-7 11-9 8-10 4h-16l-10-3-1-4 4-15 9 2h7l7-3 6-7 3-7-1-7-16-37-19-45-9-22v-1h24l14 34 15 38 4 11 5-12 15-39 12-32z" fill="#020001"/>
<path transform="translate(728,655)" d="m0 0h13v23h-16l-9 4-7 6-5 10-2 8-1 9-1 50h-22v-108l2-1 20 1 1 19 8-11 10-7z" fill="#030001"/>
<path transform="translate(553,353)" d="m0 0 4 4 14 27 8 21 4 16v8l-49 1h-54l-39-1 1-10 2-8h2l1-6h2l2-2 6-2 2 1v8l-1 4 1 3 2 1-2 4-4 4 3 1 124 1-5-22-4-11-5-11-8-16-7-13z" fill="#F51C73"/>
<path transform="translate(608,542)" d="m0 0 2 1-8 7-16 11-15 9-16 8-21 7-13 2h-17l-16-3-18-6-4-3 6 1 13 5 9 2 10 1h18l11-1 21-7 16-8 20-12 14-11z" fill="#F51B73"/>
<path transform="translate(560,330)" d="m0 0 6 1-6 8-5 7-2 4h-2l-3-5 1-2 4-4-1-3 3-1z" fill="#F41173"/>
<path transform="translate(466,575)" d="m0 0 6 1 13 5 9 2 10 1h15l3 2-1 1h-17l-16-3-18-6z" fill="#F61C72"/>
<path transform="translate(544,480)" d="m0 0 2 1-5 5-11 7-3 3-10 5-4-1 3-2 13-7 14-10z" fill="#F72071"/>
<path transform="translate(496,493)" d="m0 0 8 4 1 4-4 1-3-1v-2l-3-1z" fill="#EB0282"/>
<path transform="translate(286,283)" d="m0 0 2 3-1 8h-2v5l-3 3 1-10z" fill="#FF677F"/>
<path transform="translate(563,464)" d="m0 0m-1 1m-1 1m-1 1v3l-2 6h-2v-2l-6 4-4 2 5-6z" fill="#F61D71"/>
<path transform="translate(369,501)" d="m0 0 4 2 12 12 3 2v2l-4-2-15-15z" fill="#FD386B"/>
<path transform="translate(295,264)" d="m0 0 1 3-1 5-6 6 1-5z" fill="#FF677F"/>
<path transform="translate(424,248)" d="m0 0 2 3v7l-4-4 1-5z" fill="#F41173"/>
<path transform="translate(633,520)" d="m0 0 3 1-11 10-1-3 8-7z" fill="#F51D73"/>
</svg>
